<?xml version="1.0" encoding="utf-8"?>
<!-- Generator: Adobe Illustrator 24.1.0, SVG Export Plug-In . SVG Version: 6.00 Build 0)  -->
<svg version="1.1" id="Layer_1" xmlns="http://www.w3.org/2000/svg" xmlns:xlink="http://www.w3.org/1999/xlink" x="0px" y="0px"
	 viewBox="0 0 256 256" style="enable-background:new 0 0 256 256;" xml:space="preserve">
<style type="text/css">
	.st0{fill:#1D2E36;}
	.st1{fill:#FCCE13;}
</style>
<rect class="st0" width="256" height="256"/>
<g>
	<path class="st1" d="M84.7,144.2l-53.8,17.3c6.7,18.7,18.7,35.3,34,47.3l33.2-45.6C92.1,158.4,87.5,151.7,84.7,144.2z"/>
	<path class="st1" d="M85,111.1c2.8-7.4,7.4-13.8,13.4-18.7L65.2,46.8c-15.6,12-27.6,28.2-34.3,47L85,111.1z"/>
	<path class="st1" d="M81.8,128c0-4.2,0.7-8.1,1.8-12L29.8,98.3c-2.8,9.2-4.2,19.1-4.2,29.3c0,9.9,1.4,19.8,4.2,28.6l53.8-17.3
		C82.2,135.8,81.8,131.9,81.8,128z"/>
	<path class="st1" d="M173.8,128c0,3.9-0.7,7.8-1.4,11.3l53.8,17.3c2.8-9.2,4.2-18.7,4.2-29s-1.4-20.1-4.2-29.3L172.4,116
		C173.1,119.9,173.8,124.1,173.8,128z"/>
	<path class="st1" d="M170.6,144.6c-2.8,7.4-7.8,14.1-13.8,19.1l33.2,45.6c15.6-12,27.6-28.2,34.3-47.3L170.6,144.6z"/>
	<path class="st1" d="M130.3,82.4c7.8,0.4,15.2,2.8,21.6,7.1l33.6-46.3c-15.9-10.6-34.7-17.3-55.2-17.7V82.4z"/>
	<path class="st1" d="M125,173.9c-8.5-0.4-15.9-3.2-22.6-7.4L69.1,212c15.9,10.9,35,17.7,55.9,18.4V173.9z"/>
	<path class="st1" d="M170.3,111.1l54.1-17.7c-6.7-18.7-18.7-35-34.7-47l-33.2,45.9C162.5,97.3,167.4,103.6,170.3,111.1z"/>
	<path class="st1" d="M152.6,166.8c-6.4,4.2-14.1,6.7-22.3,7.1v56.5c20.5-0.4,39.6-7.1,55.5-18L152.6,166.8z"/>
	<path class="st1" d="M103.1,89.5c6.4-4.2,14.1-6.7,22.3-7.1V25.6c-20.5,0.4-39.6,7.1-55.5,18L103.1,89.5z"/>
</g>
</svg>
